<svg width="92" height="92" viewBox="0 0 92 92" fill="none" xmlns="http://www.w3.org/2000/svg">
<path d="M24 65.3984L19 70.3984" stroke="#B2B2B2" stroke-width="3" stroke-linecap="round"/>
<path d="M44 73.3984L40 77.3984" stroke="#B2B2B2" stroke-width="3" stroke-linecap="round"/>
<path d="M35 82.3984L33 84.3984" stroke="#555D60" stroke-width="3" stroke-linecap="round"/>
<path d="M52 65.3984L49 68.3984" stroke="#B2B2B2" stroke-width="3" stroke-linecap="round"/>
<path d="M60 83.3984L58 85.3984" stroke="#B2B2B2" stroke-width="3" stroke-linecap="round"/>
<path d="M68 75.3984L66 77.3984" stroke="#B2B2B2" stroke-width="3" stroke-linecap="round"/>
<path d="M78 65.3984L73 70.3984" stroke="#B2B2B2" stroke-width="3" stroke-linecap="round"/>
<path d="M50 81.3984L46 85.3984" stroke="#B2B2B2" stroke-width="3" stroke-linecap="round"/>
<path d="M42 89L41 90" stroke="#B2B2B2" stroke-width="3" stroke-linecap="round"/>
<path d="M66 65.3984L54 77.3984" stroke="#555D60" stroke-width="3" stroke-linecap="round"/>
<path d="M32 71.3984L30 73.3984" stroke="#B2B2B2" stroke-width="3" stroke-linecap="round"/>
<path d="M38 65.3984L37 66.3984" stroke="#555D60" stroke-width="3" stroke-linecap="round"/>
<path d="M26 77.3984L14.5 89" stroke="#555D60" stroke-width="3" stroke-linecap="round"/>
<ellipse cx="37.1148" cy="32.4712" rx="21.1148" ry="21.3443" fill="#90ACB8"/>
<path d="M78.657 60.3047H27.2352C24.0894 60.3047 21.1467 58.4671 20.168 55.4775C15.8105 42.1667 23.5387 40.1411 31.4063 41.4812C33.408 41.8221 35.495 39.0867 34.715 37.2119C31.7073 29.9824 32.2441 21.1319 47.7674 19.1289C65.8897 16.7906 70.7438 28.164 71.0724 36.2559C71.1309 37.6956 72.527 38.813 73.9486 38.5784C84.2174 36.8841 86.3879 45.8741 85.9462 53.9548C85.7415 57.6988 82.4066 60.3047 78.657 60.3047Z" fill="#B2B2B2"/>
</svg>
