<svg width="92" height="92" viewBox="0 0 92 92" fill="none" xmlns="http://www.w3.org/2000/svg">
<g clip-path="url(#clip0_171_1391)">
<path d="M68.1123 46.7303H8.72624C5.5805 46.7303 2.65491 44.8958 1.63026 41.9216C-3.90888 25.8434 5.699 23.8536 14.9787 25.6936C16.9705 26.0885 19.0133 23.4059 18.171 21.5583C14.3952 13.2756 14.4155 2.6842 32.5071 0.349804C53.2105 -2.3216 58.5402 10.8947 58.7706 20.0285C58.8069 21.4689 60.2036 22.5849 61.6205 22.3236C73.8612 20.0664 76.1538 30.9913 75.4596 40.3868C75.1833 44.1262 71.8619 46.7303 68.1123 46.7303Z" fill="#555D60"/>
<path d="M84.541 52.4803H25.155C22.0092 52.4803 19.0836 50.6458 18.059 47.6716C12.5198 31.5934 22.1277 29.6036 31.4074 31.4436C33.3992 31.8385 35.442 29.1559 34.5997 27.3083C30.824 19.0256 30.8442 8.4342 48.9358 6.0998C69.6392 3.4284 74.9689 16.6447 75.1993 25.7785C75.2356 27.2189 76.6323 28.3349 78.0493 28.0736C90.2899 25.8164 92.5825 36.7413 91.8883 46.1368C91.612 49.8762 88.2906 52.4803 84.541 52.4803Z" fill="#B2B2B2"/>
<path d="M21.6549 72.7188L34.141 56.9607L36.0081 54.7029C36.7988 53.7467 38.2783 54.8009 37.6327 55.8605L32.0527 65.019C31.1218 66.547 32.5121 68.435 34.2475 67.9995L41.6744 66.1355C43.6651 65.6359 45.0269 68.1007 43.5444 69.52L22.4487 89.7163L20.8728 91.1319C19.9528 91.9582 18.6466 90.7074 19.4324 89.7525L29.294 77.7681C30.6014 76.1793 28.9462 73.8893 27.0274 74.6323L23.9447 75.826C22.0441 76.5619 20.3892 74.3162 21.6549 72.7188Z" fill="#C3753C"/>
<path d="M53.4665 66.5187L62.8333 54.7948C63.4901 54.0071 64.7095 54.8831 64.1727 55.7569L60.9475 61.0069C60.4787 61.7698 61.1721 62.717 62.041 62.5007L69.3192 60.6891C70.3161 60.441 70.9943 61.6773 70.2493 62.3847L54.8333 77.0218C54.1032 77.6722 53.0743 76.679 53.6988 75.9264L60.3915 67.8601C61.0488 67.0678 60.2244 65.9189 59.2634 66.288L54.6063 68.0765C53.6544 68.442 52.8301 67.3154 53.4665 66.5187Z" fill="#C3753C"/>
</g>
<defs>
<clipPath id="clip0_171_1391">
<rect width="92" height="92" fill="white"/>
</clipPath>
</defs>
</svg>
