<svg width="92" height="92" viewBox="0 0 92 92" fill="none" xmlns="http://www.w3.org/2000/svg">
<ellipse cx="39.2325" cy="48.635" rx="16.9971" ry="17.1819" fill="#FE903F"/>
<path d="M39.2314 29L39.2314 11" stroke="#FE903F" stroke-width="3" stroke-linecap="round"/>
<path d="M2 48.6367H19.8065" stroke="#FE903F" stroke-width="3" stroke-linecap="round"/>
<path d="M10.9199 22.373L23.9855 34.6026" stroke="#FE903F" stroke-width="3" stroke-linecap="round"/>
<path d="M12.4736 75.2227L25.0647 62.4947" stroke="#FE903F" stroke-width="3" stroke-linecap="round"/>
<path d="M54.5615 35.1348L67.1526 22.4068" stroke="#FE903F" stroke-width="3" stroke-linecap="round"/>
<path d="M84.657 80.3047H33.2352C30.0894 80.3047 27.1467 78.4671 26.168 75.4775C21.8105 62.1667 29.5387 60.1411 37.4063 61.4812C39.408 61.8221 41.495 59.0867 40.715 57.2119C37.7073 49.9824 38.2441 41.1319 53.7674 39.1289C71.8897 36.7906 76.7438 48.164 77.0724 56.2559C77.1309 57.6956 78.527 58.813 79.9486 58.5784C90.2174 56.8841 92.3879 65.8741 91.9462 73.9548C91.7415 77.6988 88.4066 80.3047 84.657 80.3047Z" fill="#1E9DD4"/>
</svg>
