<svg width="92" height="92" viewBox="0 0 92 92" fill="none" xmlns="http://www.w3.org/2000/svg">
<path d="M68.1123 66.7303H8.72624C5.5805 66.7303 2.65491 64.8958 1.63026 61.9216C-3.90888 45.8434 5.699 43.8536 14.9787 45.6936C16.9705 46.0885 19.0133 43.4059 18.171 41.5583C14.3952 33.2756 14.4155 22.6842 32.5071 20.3498C53.2105 17.6784 58.5402 30.8947 58.7706 40.0285C58.8069 41.4689 60.2036 42.5849 61.6205 42.3236C73.8612 40.0664 76.1538 50.9913 75.4596 60.3868C75.1833 64.1262 71.8619 66.7303 68.1123 66.7303Z" fill="#1F6583"/>
<path d="M84.541 72.4803H25.155C22.0092 72.4803 19.0836 70.6458 18.059 67.6716C12.5198 51.5934 22.1277 49.6036 31.4074 51.4436C33.3992 51.8385 35.442 49.1559 34.5997 47.3083C30.824 39.0256 30.8442 28.4342 48.9358 26.0998C69.6392 23.4284 74.9689 36.6447 75.1993 45.7785C75.2356 47.2189 76.6323 48.3349 78.0493 48.0736C90.2899 45.8164 92.5825 56.7413 91.8883 66.1368C91.612 69.8762 88.2906 72.4803 84.541 72.4803Z" fill="#1E9DD4"/>
</svg>
