<svg width="92" height="92" viewBox="0 0 92 92" fill="none" xmlns="http://www.w3.org/2000/svg">
<path d="M32.8715 5.92924L28.7529 15.9244" stroke="#1A4253" stroke-width="3" stroke-linecap="round"/>
<path d="M23.851 5.9083L28.2067 15.8024" stroke="#1A4253" stroke-width="3" stroke-linecap="round"/>
<path d="M53.3246 23.7607L42.5992 25.1141" stroke="#1A4253" stroke-width="3" stroke-linecap="round"/>
<path d="M48.8886 15.9105L42.4352 24.5833" stroke="#1A4253" stroke-width="3" stroke-linecap="round"/>
<path d="M48.7646 49.3298L42.4967 40.5219" stroke="#1A4253" stroke-width="3" stroke-linecap="round"/>
<path d="M53.5852 41.7036L42.891 40.1228" stroke="#1A4253" stroke-width="3" stroke-linecap="round"/>
<path d="M3.75517 41.2327L14.5623 40.9659" stroke="#1A4253" stroke-width="3" stroke-linecap="round"/>
<path d="M7.37965 49.4914L14.6734 41.5123" stroke="#1A4253" stroke-width="3" stroke-linecap="round"/>
<path d="M24.1274 59.4847L28.1333 49.4439" stroke="#1A4253" stroke-width="3" stroke-linecap="round"/>
<path d="M33.1481 59.4041L28.6815 49.5596" stroke="#1A4253" stroke-width="3" stroke-linecap="round"/>
<path d="M30.2246 3.96875C30.2246 3.14032 29.553 2.46875 28.7246 2.46875C27.8962 2.46875 27.2246 3.14032 27.2246 3.96875L30.2246 3.96875ZM27.6639 18.3792C28.2497 18.965 29.1995 18.965 29.7853 18.3792L39.3312 8.83328C39.917 8.24749 39.917 7.29774 39.3312 6.71196C38.7454 6.12617 37.7957 6.12617 37.2099 6.71196L28.7246 15.1972L20.2393 6.71196C19.6535 6.12617 18.7038 6.12617 18.118 6.71196C17.5322 7.29774 17.5322 8.24749 18.118 8.83328L27.6639 18.3792ZM27.2246 3.96875L27.2246 17.3186L30.2246 17.3186L30.2246 3.96875L27.2246 3.96875Z" fill="#1F6583"/>
<path d="M28.7246 6.02344L28.7246 27.5885" stroke="#1F6583" stroke-width="3"/>
<path d="M54.0391 19.6467C54.7565 19.2325 55.0023 18.3151 54.5881 17.5977C54.1739 16.8802 53.2565 16.6344 52.5391 17.0486L54.0391 19.6467ZM40.2789 24.6343C40.0645 25.4345 40.5394 26.257 41.3396 26.4715L54.3796 29.9655C55.1798 30.1799 56.0023 29.705 56.2167 28.9048C56.4311 28.1046 55.9562 27.2821 55.156 27.0677L43.5649 23.9619L46.6707 12.3708C46.8851 11.5706 46.4103 10.7481 45.6101 10.5337C44.8099 10.3193 43.9874 10.7941 43.773 11.5943L40.2789 24.6343ZM52.5391 17.0486L40.9778 23.7235L42.4778 26.3216L54.0391 19.6467L52.5391 17.0486Z" fill="#1F6583"/>
<path d="M51.5098 19.375L32.8339 30.1575" stroke="#1F6583" stroke-width="3"/>
<path d="M3.33008 45.2869C2.61264 45.7011 2.36683 46.6185 2.78104 47.3359C3.19525 48.0534 4.11264 48.2992 4.83008 47.885L3.33008 45.2869ZM17.0902 40.2993C17.3047 39.4991 16.8298 38.6766 16.0296 38.4621L2.98958 34.9681C2.18939 34.7537 1.36688 35.2285 1.15247 36.0287C0.938054 36.8289 1.41293 37.6515 2.21313 37.8659L13.8042 40.9717L10.6984 52.5628C10.484 53.363 10.9589 54.1855 11.7591 54.3999C12.5593 54.6143 13.3818 54.1395 13.5962 53.3393L17.0902 40.2993ZM4.83008 47.885L16.3914 41.2101L14.8914 38.612L3.33008 45.2869L4.83008 47.885Z" fill="#1F6583"/>
<path d="M5.85938 45.5586L24.5353 34.7761" stroke="#1F6583" stroke-width="3"/>
<path d="M52.5391 47.885C53.2565 48.2992 54.1739 48.0534 54.5881 47.3359C55.0023 46.6185 54.7565 45.7011 54.0391 45.2869L52.5391 47.885ZM41.3396 38.4621C40.5394 38.6766 40.0645 39.4991 40.2789 40.2993L43.773 53.3393C43.9874 54.1395 44.8099 54.6143 45.6101 54.3999C46.4103 54.1855 46.8851 53.363 46.6707 52.5628L43.5649 40.9717L55.156 37.8659C55.9562 37.6515 56.4311 36.8289 56.2167 36.0287C56.0023 35.2285 55.1798 34.7537 54.3796 34.9681L41.3396 38.4621ZM54.0391 45.2869L42.4778 38.612L40.9778 41.2101L52.5391 47.885L54.0391 45.2869Z" fill="#1F6583"/>
<path d="M51.5098 45.5605L32.8339 34.778" stroke="#1F6583" stroke-width="3"/>
<path d="M31.2936 27.5885L36.9298 18.3636" stroke="#1A4253" stroke-width="3" stroke-linecap="round"/>
<path d="M19.651 47.0807L25.2873 37.8558" stroke="#1A4253" stroke-width="3" stroke-linecap="round"/>
<path d="M11.2678 32.722L22.5677 32.7227" stroke="#1A4253" stroke-width="3" stroke-linecap="round"/>
<path d="M34.887 32.722L46.1868 32.7227" stroke="#1A4253" stroke-width="3" stroke-linecap="round"/>
<path d="M20.5097 18.4394L25.8125 27.8599" stroke="#1A4253" stroke-width="3" stroke-linecap="round"/>
<path d="M8.52041 15.8245L15.2131 24.3141" stroke="#1A4253" stroke-width="3" stroke-linecap="round"/>
<path d="M4.08067 23.6786L14.8396 24.7326" stroke="#1A4253" stroke-width="3" stroke-linecap="round"/>
<path d="M31.8066 37.9511L37.1094 47.3716" stroke="#1A4253" stroke-width="3" stroke-linecap="round"/>
<path d="M4.83008 17.0467C4.11264 16.6325 3.19525 16.8783 2.78104 17.5957C2.36683 18.3131 2.61264 19.2305 3.33008 19.6447L4.83008 17.0467ZM16.0296 26.4695C16.8298 26.2551 17.3047 25.4326 17.0902 24.6324L13.5962 11.5924C13.3818 10.7922 12.5593 10.3173 11.7591 10.5317C10.9589 10.7461 10.484 11.5686 10.6984 12.3688L13.8042 23.9599L2.21312 27.0658C1.41293 27.2802 0.938051 28.1027 1.15246 28.9029C1.36688 29.7031 2.18938 30.178 2.98958 29.9636L16.0296 26.4695ZM3.33008 19.6447L14.8914 26.3196L16.3914 23.7216L4.83008 17.0467L3.33008 19.6447Z" fill="#1F6583"/>
<path d="M5.85937 19.3711L24.5353 30.1536" stroke="#1F6583" stroke-width="3"/>
<path d="M27.2246 61.4766C27.2246 62.305 27.8962 62.9766 28.7246 62.9766C29.553 62.9766 30.2246 62.305 30.2246 61.4766L27.2246 61.4766ZM29.7853 47.0661C29.1995 46.4803 28.2497 46.4803 27.6639 47.0661L18.118 56.612C17.5322 57.1978 17.5322 58.1476 18.118 58.7334C18.7038 59.3191 19.6535 59.3191 20.2393 58.7334L28.7246 50.2481L37.2099 58.7334C37.7957 59.3191 38.7454 59.3191 39.3312 58.7334C39.917 58.1476 39.917 57.1978 39.3312 56.612L29.7853 47.0661ZM30.2246 61.4766L30.2246 48.1268L27.2246 48.1268L27.2246 61.4766L30.2246 61.4766Z" fill="#1F6583"/>
<path d="M28.7246 59.4219L28.7246 37.8568" stroke="#1F6583" stroke-width="3"/>
<circle cx="28.7255" cy="32.7235" r="5.68836" stroke="#1F6583" stroke-width="3"/>
<path d="M79.5774 28.6092L77.518 33.6067" stroke="#1A4253" stroke-width="1.50002" stroke-linecap="round"/>
<path d="M75.0651 28.5987L77.243 33.5458" stroke="#1A4253" stroke-width="1.50002" stroke-linecap="round"/>
<path d="M89.8039 37.5268L84.4411 38.2035" stroke="#1A4253" stroke-width="1.50002" stroke-linecap="round"/>
<path d="M87.5859 33.6017L84.3591 37.9382" stroke="#1A4253" stroke-width="1.50002" stroke-linecap="round"/>
<path d="M87.5268 50.3095L84.3928 45.9055" stroke="#1A4253" stroke-width="1.50002" stroke-linecap="round"/>
<path d="M89.9361 46.4944L84.5889 45.704" stroke="#1A4253" stroke-width="1.50002" stroke-linecap="round"/>
<path d="M65.0221 46.2609L70.4258 46.1275" stroke="#1A4253" stroke-width="1.50002" stroke-linecap="round"/>
<path d="M66.8334 50.3922L70.4804 46.4026" stroke="#1A4253" stroke-width="1.50002" stroke-linecap="round"/>
<path d="M75.2082 55.3859L77.2112 50.3655" stroke="#1A4253" stroke-width="1.50002" stroke-linecap="round"/>
<path d="M79.7196 55.3476L77.4862 50.4253" stroke="#1A4253" stroke-width="1.50002" stroke-linecap="round"/>
<path d="M78.2539 27.6309C78.2539 27.2166 77.9181 26.8808 77.5039 26.8808C77.0897 26.8808 76.7539 27.2166 76.7539 27.6309L78.2539 27.6309ZM76.9736 34.8361C77.2665 35.129 77.7413 35.129 78.0342 34.8361L82.8073 30.0631C83.1002 29.7702 83.1002 29.2953 82.8073 29.0024C82.5144 28.7095 82.0395 28.7095 81.7466 29.0024L77.5039 33.2451L73.2612 29.0024C72.9683 28.7095 72.4934 28.7095 72.2005 29.0024C71.9076 29.2953 71.9076 29.7702 72.2005 30.0631L76.9736 34.8361ZM76.7539 27.6309L76.7539 34.3058L78.2539 34.3058L78.2539 27.6309L76.7539 27.6309Z" fill="#1F6583"/>
<path d="M77.5039 28.6562L77.5039 39.4389" stroke="#1F6583" stroke-width="1.50002"/>
<path d="M90.1602 35.4679C90.5189 35.2608 90.6418 34.8021 90.4347 34.4434C90.2276 34.0846 89.7689 33.9617 89.4101 34.1688L90.1602 35.4679ZM83.2799 37.9617C83.1727 38.3618 83.4101 38.7731 83.8103 38.8803L90.3304 40.6274C90.7305 40.7346 91.1418 40.4971 91.249 40.097C91.3562 39.6969 91.1188 39.2857 90.7186 39.1785L84.9229 37.6255L86.4759 31.8299C86.5831 31.4298 86.3456 31.0185 85.9455 30.9113C85.5454 30.8041 85.1342 31.0416 85.027 31.4417L83.2799 37.9617ZM89.4101 34.1688L83.6294 37.5063L84.3794 38.8054L90.1602 35.4679L89.4101 34.1688Z" fill="#1F6583"/>
<path d="M88.8965 35.332L79.5583 40.7233" stroke="#1F6583" stroke-width="1.50002"/>
<path d="M64.8066 48.2919C64.4479 48.499 64.325 48.9577 64.5321 49.3164C64.7392 49.6751 65.1979 49.798 65.5567 49.5909L64.8066 48.2919ZM71.6869 45.7981C71.7941 45.3979 71.5567 44.9867 71.1565 44.8795L64.6364 43.1324C64.2363 43.0252 63.825 43.2626 63.7178 43.6627C63.6106 44.0628 63.848 44.4741 64.2482 44.5813L70.0438 46.1343L68.4909 51.9299C68.3837 52.33 68.6212 52.7412 69.0213 52.8484C69.4214 52.9556 69.8326 52.7182 69.9398 52.3181L71.6869 45.7981ZM65.5567 49.5909L71.3374 46.2535L70.5874 44.9544L64.8066 48.2919L65.5567 49.5909Z" fill="#1F6583"/>
<path d="M66.0703 48.4277L75.4085 43.0364" stroke="#1F6583" stroke-width="1.50002"/>
<path d="M89.4101 49.5909C89.7689 49.798 90.2276 49.6751 90.4347 49.3164C90.6418 48.9577 90.5189 48.499 90.1602 48.2919L89.4101 49.5909ZM83.8103 44.8795C83.4101 44.9867 83.1727 45.3979 83.2799 45.7981L85.027 52.3181C85.1342 52.7182 85.5454 52.9556 85.9455 52.8484C86.3456 52.7412 86.5831 52.33 86.4759 51.9299L84.923 46.1343L90.7186 44.5813C91.1188 44.4741 91.3562 44.0628 91.249 43.6627C91.1418 43.2626 90.7305 43.0252 90.3304 43.1324L83.8103 44.8795ZM90.1602 48.2919L84.3794 44.9544L83.6294 46.2535L89.4101 49.5909L90.1602 48.2919Z" fill="#1F6583"/>
<path d="M88.8965 48.4277L79.5583 43.0364" stroke="#1F6583" stroke-width="1.50002"/>
<path d="M78.7884 39.4378L81.6066 34.8253" stroke="#1A4253" stroke-width="1.50002" stroke-linecap="round"/>
<path d="M72.9661 49.1858L75.7843 44.5734" stroke="#1A4253" stroke-width="1.50002" stroke-linecap="round"/>
<path d="M68.7745 42.0055L74.4246 42.0059" stroke="#1A4253" stroke-width="1.50002" stroke-linecap="round"/>
<path d="M80.587 42.0055L86.2371 42.0059" stroke="#1A4253" stroke-width="1.50002" stroke-linecap="round"/>
<path d="M73.3974 34.8652L76.0489 39.5755" stroke="#1A4253" stroke-width="1.50002" stroke-linecap="round"/>
<path d="M67.4018 33.5558L70.7482 37.8007" stroke="#1A4253" stroke-width="1.50002" stroke-linecap="round"/>
<path d="M65.1819 37.4829L70.5615 38.0099" stroke="#1A4253" stroke-width="1.50002" stroke-linecap="round"/>
<path d="M79.0459 44.6211L81.6973 49.3314" stroke="#1A4253" stroke-width="1.50002" stroke-linecap="round"/>
<path d="M65.5567 34.1708C65.1979 33.9637 64.7392 34.0866 64.5321 34.4453C64.325 34.804 64.4479 35.2627 64.8066 35.4698L65.5567 34.1708ZM71.1565 38.8822C71.5566 38.775 71.7941 38.3638 71.6869 37.9637L69.9398 31.4436C69.8326 31.0435 69.4214 30.8061 69.0213 30.9133C68.6212 31.0205 68.3837 31.4318 68.4909 31.8319L70.0438 37.6275L64.2482 39.1804C63.848 39.2876 63.6106 39.6989 63.7178 40.099C63.825 40.4991 64.2363 40.7365 64.6364 40.6293L71.1565 38.8822ZM64.8066 35.4698L70.5874 38.8073L71.3374 37.5083L65.5567 34.1708L64.8066 35.4698Z" fill="#1F6583"/>
<path d="M66.0723 35.334L75.4105 40.7253" stroke="#1F6583" stroke-width="1.50002"/>
<path d="M76.7539 56.3848C76.7539 56.799 77.0897 57.1348 77.5039 57.1348C77.9181 57.1348 78.2539 56.799 78.2539 56.3848L76.7539 56.3848ZM78.0342 49.1795C77.7413 48.8866 77.2665 48.8866 76.9736 49.1795L72.2005 53.9525C71.9076 54.2454 71.9076 54.7203 72.2005 55.0132C72.4934 55.3061 72.9683 55.3061 73.2612 55.0132L77.5039 50.7705L81.7466 55.0132C82.0395 55.3061 82.5144 55.3061 82.8073 55.0132C83.1002 54.7203 83.1002 54.2454 82.8073 53.9525L78.0342 49.1795ZM78.2539 56.3848L78.2539 49.7098L76.7539 49.7098L76.7539 56.3848L78.2539 56.3848Z" fill="#1F6583"/>
<path d="M77.5039 55.3594L77.5039 44.5768" stroke="#1F6583" stroke-width="1.50002"/>
<path d="M80.3487 42.0063C80.3487 43.5771 79.0753 44.8505 77.5044 44.8505C75.9336 44.8505 74.6602 43.5771 74.6602 42.0063C74.6602 40.4355 75.9336 39.1621 77.5044 39.1621C79.0753 39.1621 80.3487 40.4355 80.3487 42.0063Z" stroke="#1F6583" stroke-width="1.50002"/>
<path d="M64.1731 61.4724L62.1137 66.47" stroke="#1A4253" stroke-width="1.50002" stroke-linecap="round"/>
<path d="M59.6609 61.462L61.8387 66.409" stroke="#1A4253" stroke-width="1.50002" stroke-linecap="round"/>
<path d="M74.3996 70.3862L69.0368 71.0629" stroke="#1A4253" stroke-width="1.50002" stroke-linecap="round"/>
<path d="M72.1816 66.4611L68.9548 70.7975" stroke="#1A4253" stroke-width="1.50002" stroke-linecap="round"/>
<path d="M72.1206 83.1727L68.9866 78.7688" stroke="#1A4253" stroke-width="1.50002" stroke-linecap="round"/>
<path d="M74.5299 79.3577L69.1827 78.5672" stroke="#1A4253" stroke-width="1.50002" stroke-linecap="round"/>
<path d="M49.6159 79.1222L55.0196 78.9888" stroke="#1A4253" stroke-width="1.50002" stroke-linecap="round"/>
<path d="M51.4271 83.2535L55.0741 79.2639" stroke="#1A4253" stroke-width="1.50002" stroke-linecap="round"/>
<path d="M59.802 88.2492L61.805 83.2288" stroke="#1A4253" stroke-width="1.50002" stroke-linecap="round"/>
<path d="M64.3133 88.2108L62.0799 83.2886" stroke="#1A4253" stroke-width="1.50002" stroke-linecap="round"/>
<path d="M62.8496 60.4902C62.8496 60.076 62.5138 59.7402 62.0996 59.7402C61.6854 59.7402 61.3496 60.076 61.3496 60.4902L62.8496 60.4902ZM61.5693 67.6955C61.8622 67.9884 62.3371 67.9884 62.6299 67.6955L67.403 62.9225C67.6959 62.6296 67.6959 62.1547 67.403 61.8618C67.1101 61.5689 66.6352 61.5689 66.3423 61.8618L62.0996 66.1045L57.8569 61.8618C57.564 61.5689 57.0891 61.5689 56.7962 61.8618C56.5033 62.1547 56.5033 62.6296 56.7962 62.9225L61.5693 67.6955ZM61.3496 60.4902L61.3496 67.1652L62.8496 67.1652L62.8496 60.4902L61.3496 60.4902Z" fill="#1F6583"/>
<path d="M62.0996 61.5156L62.0996 72.2982" stroke="#1F6583" stroke-width="1.50002"/>
<path d="M74.7578 68.3292C75.1166 68.1221 75.2395 67.6634 75.0323 67.3047C74.8252 66.946 74.3665 66.8231 74.0078 67.0302L74.7578 68.3292ZM67.8776 70.823C67.7704 71.2231 68.0078 71.6344 68.4079 71.7416L74.9281 73.4887C75.3282 73.5959 75.7394 73.3585 75.8466 72.9584C75.9539 72.5582 75.7164 72.147 75.3163 72.0398L69.5206 70.4868L71.0735 64.6912C71.1807 64.2911 70.9433 63.8799 70.5432 63.7727C70.1431 63.6655 69.7318 63.9029 69.6246 64.303L67.8776 70.823ZM74.0078 67.0302L68.227 70.3676L68.977 71.6667L74.7578 68.3292L74.0078 67.0302Z" fill="#1F6583"/>
<path d="M73.4941 68.1934L64.156 73.5847" stroke="#1F6583" stroke-width="1.50002"/>
<path d="M49.4023 81.1493C49.0436 81.3564 48.9207 81.8151 49.1278 82.1738C49.3349 82.5326 49.7936 82.6555 50.1524 82.4484L49.4023 81.1493ZM56.2826 78.6555C56.3898 78.2554 56.1524 77.8441 55.7522 77.7369L49.2321 75.9898C48.832 75.8826 48.4207 76.1201 48.3135 76.5202C48.2063 76.9203 48.4437 77.3315 48.8439 77.4387L54.6396 78.9917L53.0866 84.7873C52.9794 85.1874 53.2169 85.5986 53.617 85.7059C54.0171 85.8131 54.4283 85.5756 54.5355 85.1755L56.2826 78.6555ZM50.1524 82.4484L55.9331 79.1109L55.1831 77.8118L49.4023 81.1493L50.1524 82.4484Z" fill="#1F6583"/>
<path d="M50.666 81.2852L60.0042 75.8939" stroke="#1F6583" stroke-width="1.50002"/>
<path d="M74.0078 82.4484C74.3665 82.6555 74.8252 82.5326 75.0323 82.1738C75.2395 81.8151 75.1166 81.3564 74.7578 81.1493L74.0078 82.4484ZM68.4079 77.7369C68.0078 77.8441 67.7704 78.2554 67.8776 78.6555L69.6246 85.1755C69.7318 85.5756 70.1431 85.8131 70.5432 85.7059C70.9433 85.5986 71.1807 85.1874 71.0735 84.7873L69.5206 78.9917L75.3163 77.4387C75.7164 77.3315 75.9539 76.9203 75.8466 76.5202C75.7394 76.1201 75.3282 75.8826 74.9281 75.9898L68.4079 77.7369ZM74.7578 81.1493L68.977 77.8118L68.227 79.1109L74.0078 82.4484L74.7578 81.1493Z" fill="#1F6583"/>
<path d="M73.4941 81.2852L64.156 75.8939" stroke="#1F6583" stroke-width="1.50002"/>
<path d="M63.3841 72.3011L66.2023 67.6886" stroke="#1A4253" stroke-width="1.50002" stroke-linecap="round"/>
<path d="M57.5618 82.0472L60.38 77.4347" stroke="#1A4253" stroke-width="1.50002" stroke-linecap="round"/>
<path d="M53.3702 74.8688L59.0203 74.8692" stroke="#1A4253" stroke-width="1.50002" stroke-linecap="round"/>
<path d="M65.1808 74.8688L70.8309 74.8692" stroke="#1A4253" stroke-width="1.50002" stroke-linecap="round"/>
<path d="M57.9912 67.7266L60.6426 72.4368" stroke="#1A4253" stroke-width="1.50002" stroke-linecap="round"/>
<path d="M51.9975 66.4191L55.3439 70.6639" stroke="#1A4253" stroke-width="1.50002" stroke-linecap="round"/>
<path d="M49.7776 70.3461L55.1572 70.8731" stroke="#1A4253" stroke-width="1.50002" stroke-linecap="round"/>
<path d="M63.6396 77.4824L66.2911 82.1927" stroke="#1A4253" stroke-width="1.50002" stroke-linecap="round"/>
<path d="M50.1524 67.0302C49.7936 66.8231 49.3349 66.946 49.1278 67.3047C48.9207 67.6634 49.0436 68.1221 49.4023 68.3292L50.1524 67.0302ZM55.7522 71.7416C56.1524 71.6344 56.3898 71.2231 56.2826 70.823L54.5355 64.303C54.4283 63.9029 54.0171 63.6655 53.617 63.7727C53.2169 63.8799 52.9794 64.2911 53.0866 64.6912L54.6395 70.4868L48.8439 72.0398C48.4437 72.147 48.2063 72.5582 48.3135 72.9583C48.4207 73.3585 48.832 73.5959 49.2321 73.4887L55.7522 71.7416ZM49.4023 68.3292L55.1831 71.6667L55.9331 70.3676L50.1524 67.0302L49.4023 68.3292Z" fill="#1F6583"/>
<path d="M50.666 68.1934L60.0042 73.5847" stroke="#1F6583" stroke-width="1.50002"/>
<path d="M61.3496 89.2441C61.3496 89.6584 61.6854 89.9942 62.0996 89.9942C62.5138 89.9942 62.8496 89.6584 62.8496 89.2441L61.3496 89.2441ZM62.6299 82.0389C62.3371 81.746 61.8622 81.746 61.5693 82.0389L56.7962 86.8119C56.5033 87.1048 56.5033 87.5797 56.7962 87.8726C57.0891 88.1655 57.564 88.1655 57.8569 87.8726L62.0996 83.6299L66.3423 87.8726C66.6352 88.1655 67.1101 88.1655 67.403 87.8726C67.6959 87.5797 67.6959 87.1048 67.403 86.8119L62.6299 82.0389ZM62.8496 89.2441L62.8496 82.5692L61.3496 82.5692L61.3496 89.2441L62.8496 89.2441Z" fill="#1F6583"/>
<path d="M62.0996 88.2188L62.0996 77.4361" stroke="#1F6583" stroke-width="1.50002"/>
<path d="M64.9444 74.8696C64.9444 76.4404 63.671 77.7138 62.1001 77.7138C60.5293 77.7138 59.2559 76.4404 59.2559 74.8696C59.2559 73.2988 60.5293 72.0254 62.1001 72.0254C63.671 72.0254 64.9444 73.2988 64.9444 74.8696Z" stroke="#1F6583" stroke-width="1.50002"/>
</svg>
